<mxfile host="www.draw.io" modified="2020-02-10T07:14:43.420Z" agent="Mozilla/5.0 (Macintosh; Intel Mac OS X 10_14_6) AppleWebKit/537.36 (KHTML, like Gecko) Chrome/79.0.3945.130 Safari/537.36" etag="YoJPjnM5iZXV8mmBT10a" version="12.6.6" type="github">
  <diagram id="6Yw3_8N0L_zn6UBm3buK" name="Page-1">
    <mxGraphModel dx="1186" dy="619" grid="1" gridSize="10" guides="1" tooltips="1" connect="1" arrows="1" fold="1" page="1" pageScale="1" pageWidth="1654" pageHeight="2336" math="0" shadow="0">
      <root>
        <mxCell id="0"/>
        <mxCell id="1" parent="0"/>
        <mxCell id="zdA7el6iR7fUtZH1tA-k-6" style="edgeStyle=orthogonalEdgeStyle;rounded=0;orthogonalLoop=1;jettySize=auto;html=1;entryX=0.5;entryY=1;entryDx=0;entryDy=0;" parent="1" source="zdA7el6iR7fUtZH1tA-k-1" target="zdA7el6iR7fUtZH1tA-k-4" edge="1">
          <mxGeometry relative="1" as="geometry"/>
        </mxCell>
        <mxCell id="zdA7el6iR7fUtZH1tA-k-7" style="edgeStyle=orthogonalEdgeStyle;rounded=0;orthogonalLoop=1;jettySize=auto;html=1;entryX=0.5;entryY=1;entryDx=0;entryDy=0;" parent="1" source="zdA7el6iR7fUtZH1tA-k-1" target="zdA7el6iR7fUtZH1tA-k-5" edge="1">
          <mxGeometry relative="1" as="geometry"/>
        </mxCell>
        <mxCell id="zdA7el6iR7fUtZH1tA-k-1" value="路由器" style="rounded=0;whiteSpace=wrap;html=1;" parent="1" vertex="1">
          <mxGeometry x="600" y="110" width="80" height="30" as="geometry"/>
        </mxCell>
        <mxCell id="zdA7el6iR7fUtZH1tA-k-2" value="" style="endArrow=classic;startArrow=classic;html=1;" parent="1" edge="1">
          <mxGeometry width="50" height="50" relative="1" as="geometry">
            <mxPoint x="640" y="260" as="sourcePoint"/>
            <mxPoint x="639.5" y="140" as="targetPoint"/>
          </mxGeometry>
        </mxCell>
        <mxCell id="zdA7el6iR7fUtZH1tA-k-3" value="网线" style="text;html=1;strokeColor=none;fillColor=none;align=center;verticalAlign=middle;whiteSpace=wrap;rounded=0;" parent="1" vertex="1">
          <mxGeometry x="600" y="190" width="40" height="20" as="geometry"/>
        </mxCell>
        <mxCell id="zdA7el6iR7fUtZH1tA-k-4" value="IpA" style="rounded=0;whiteSpace=wrap;html=1;" parent="1" vertex="1">
          <mxGeometry x="450" y="50" width="90" height="50" as="geometry"/>
        </mxCell>
        <mxCell id="zdA7el6iR7fUtZH1tA-k-5" value="IpB" style="rounded=0;whiteSpace=wrap;html=1;" parent="1" vertex="1">
          <mxGeometry x="740" y="45" width="80" height="55" as="geometry"/>
        </mxCell>
        <mxCell id="zdA7el6iR7fUtZH1tA-k-12" value="" style="edgeStyle=orthogonalEdgeStyle;rounded=0;orthogonalLoop=1;jettySize=auto;html=1;" parent="1" source="zdA7el6iR7fUtZH1tA-k-8" edge="1">
          <mxGeometry relative="1" as="geometry">
            <mxPoint x="640" y="370" as="targetPoint"/>
          </mxGeometry>
        </mxCell>
        <mxCell id="zdA7el6iR7fUtZH1tA-k-8" value="路由器" style="rounded=0;whiteSpace=wrap;html=1;" parent="1" vertex="1">
          <mxGeometry x="600" y="260" width="80" height="30" as="geometry"/>
        </mxCell>
        <mxCell id="u23m-r9TK8jgyLL94RrK-2" value="" style="edgeStyle=orthogonalEdgeStyle;rounded=0;orthogonalLoop=1;jettySize=auto;html=1;" edge="1" parent="1" source="zdA7el6iR7fUtZH1tA-k-9" target="u23m-r9TK8jgyLL94RrK-1">
          <mxGeometry relative="1" as="geometry"/>
        </mxCell>
        <mxCell id="zdA7el6iR7fUtZH1tA-k-9" value="&lt;font style=&quot;font-size: 18px&quot;&gt;设备&lt;/font&gt;" style="rounded=0;whiteSpace=wrap;html=1;" parent="1" vertex="1">
          <mxGeometry x="545" y="370" width="190" height="110" as="geometry"/>
        </mxCell>
        <mxCell id="u23m-r9TK8jgyLL94RrK-5" style="edgeStyle=orthogonalEdgeStyle;rounded=0;orthogonalLoop=1;jettySize=auto;html=1;" edge="1" parent="1" source="u23m-r9TK8jgyLL94RrK-1">
          <mxGeometry relative="1" as="geometry">
            <mxPoint x="510" y="630" as="targetPoint"/>
          </mxGeometry>
        </mxCell>
        <mxCell id="u23m-r9TK8jgyLL94RrK-6" style="edgeStyle=orthogonalEdgeStyle;rounded=0;orthogonalLoop=1;jettySize=auto;html=1;" edge="1" parent="1" source="u23m-r9TK8jgyLL94RrK-1">
          <mxGeometry relative="1" as="geometry">
            <mxPoint x="770" y="630" as="targetPoint"/>
          </mxGeometry>
        </mxCell>
        <mxCell id="u23m-r9TK8jgyLL94RrK-1" value="&lt;font style=&quot;font-size: 18px&quot;&gt;IP&lt;/font&gt;" style="rounded=0;whiteSpace=wrap;html=1;" vertex="1" parent="1">
          <mxGeometry x="547.5" y="560" width="185" height="30" as="geometry"/>
        </mxCell>
        <mxCell id="zdA7el6iR7fUtZH1tA-k-14" value="wifi" style="text;html=1;strokeColor=none;fillColor=none;align=center;verticalAlign=middle;whiteSpace=wrap;rounded=0;" parent="1" vertex="1">
          <mxGeometry x="630" y="340" width="60" height="30" as="geometry"/>
        </mxCell>
        <mxCell id="zdA7el6iR7fUtZH1tA-k-17" value="基站" style="ellipse;shape=cloud;whiteSpace=wrap;html=1;" parent="1" vertex="1">
          <mxGeometry x="240" y="220" width="120" height="80" as="geometry"/>
        </mxCell>
        <mxCell id="zdA7el6iR7fUtZH1tA-k-18" value="" style="endArrow=classic;startArrow=classic;html=1;" parent="1" edge="1">
          <mxGeometry width="50" height="50" relative="1" as="geometry">
            <mxPoint x="540" y="440" as="sourcePoint"/>
            <mxPoint x="350" y="290" as="targetPoint"/>
          </mxGeometry>
        </mxCell>
        <mxCell id="zdA7el6iR7fUtZH1tA-k-19" value="发射信号" style="text;html=1;strokeColor=none;fillColor=none;align=center;verticalAlign=middle;whiteSpace=wrap;rounded=0;" parent="1" vertex="1">
          <mxGeometry x="390" y="300" width="40" height="30" as="geometry"/>
        </mxCell>
        <mxCell id="zdA7el6iR7fUtZH1tA-k-20" value="蜂窝网络" style="text;html=1;strokeColor=none;fillColor=none;align=center;verticalAlign=middle;whiteSpace=wrap;rounded=0;" parent="1" vertex="1">
          <mxGeometry x="480" y="440" width="60" height="20" as="geometry"/>
        </mxCell>
        <mxCell id="u23m-r9TK8jgyLL94RrK-3" value="TCP" style="rounded=0;whiteSpace=wrap;html=1;" vertex="1" parent="1">
          <mxGeometry x="450" y="630" width="120" height="60" as="geometry"/>
        </mxCell>
        <mxCell id="u23m-r9TK8jgyLL94RrK-4" value="UDP" style="rounded=0;whiteSpace=wrap;html=1;" vertex="1" parent="1">
          <mxGeometry x="710" y="630" width="120" height="60" as="geometry"/>
        </mxCell>
        <mxCell id="u23m-r9TK8jgyLL94RrK-7" value="Socket-Api" style="shape=process;whiteSpace=wrap;html=1;backgroundOutline=1;" vertex="1" parent="1">
          <mxGeometry x="480" y="720" width="330" height="40" as="geometry"/>
        </mxCell>
      </root>
    </mxGraphModel>
  </diagram>
</mxfile>
